STARTFONT 2.1
FONT -aaron-bitocra7-Medium-R-Normal--7-60-75-75-C-40-ISO8859-1
SIZE 7 75 75
FONTBOUNDINGBOX 4 7 0 -1
STARTPROPERTIES 24
FONTNAME_REGISTRY ""
FOUNDRY "aaron"
FAMILY_NAME "bitocra7"
FACE_NAME "bitocra7"
WEIGHT_NAME "Medium"
SLANT "R"
SETWIDTH_NAME "Normal"
ADD_STYLE_NAME ""
PIXEL_SIZE 7
POINT_SIZE 60
RESOLUTION_X 75
RESOLUTION_Y 75
SPACING "C"
AVERAGE_WIDTH 40
CHARSET_REGISTRY "ISO8859"
CHARSET_ENCODING "1"
COPYRIGHT "Aaron Christianson 2011"
WEIGHT 10
X_HEIGHT 5
QUAD_WIDTH 4
DEFAULT_CHAR 0
FONT_DESCENT 1
FONT_ASCENT 6
_GBDFED_INFO "Edited with gbdfed 1.6."
ENDPROPERTIES
CHARS 192
STARTCHAR C000
ENCODING 0
SWIDTH 548 0
DWIDTH 4 0
BBX 4 7 0 -1
BITMAP
10
10
10
10
10
F0
00
ENDCHAR
STARTCHAR C001
ENCODING 1
SWIDTH 548 0
DWIDTH 4 0
BBX 4 7 0 -1
BITMAP
00
00
00
00
00
00
00
ENDCHAR
STARTCHAR C002
ENCODING 2
SWIDTH 548 0
DWIDTH 4 0
BBX 4 7 0 -1
BITMAP
00
00
00
00
00
00
00
ENDCHAR
STARTCHAR C003
ENCODING 3
SWIDTH 548 0
DWIDTH 4 0
BBX 4 7 0 -1
BITMAP
00
00
00
00
00
00
00
ENDCHAR
STARTCHAR C004
ENCODING 4
SWIDTH 548 0
DWIDTH 4 0
BBX 4 7 0 -1
BITMAP
00
00
00
00
00
00
00
ENDCHAR
STARTCHAR C005
ENCODING 5
SWIDTH 548 0
DWIDTH 4 0
BBX 4 7 0 -1
BITMAP
00
00
00
00
00
00
00
ENDCHAR
STARTCHAR C006
ENCODING 6
SWIDTH 548 0
DWIDTH 4 0
BBX 4 7 0 -1
BITMAP
00
00
00
00
00
00
00
ENDCHAR
STARTCHAR C007
ENCODING 7
SWIDTH 548 0
DWIDTH 4 0
BBX 4 7 0 -1
BITMAP
00
00
00
00
00
00
00
ENDCHAR
STARTCHAR C010
ENCODING 8
SWIDTH 548 0
DWIDTH 4 0
BBX 4 7 0 -1
BITMAP
00
00
00
00
00
00
00
ENDCHAR
STARTCHAR C011
ENCODING 9
SWIDTH 548 0
DWIDTH 4 0
BBX 4 7 0 -1
BITMAP
00
00
00
00
00
00
00
ENDCHAR
STARTCHAR C012
ENCODING 10
SWIDTH 548 0
DWIDTH 4 0
BBX 4 7 0 -1
BITMAP
00
00
00
00
00
00
00
ENDCHAR
STARTCHAR C013
ENCODING 11
SWIDTH 548 0
DWIDTH 4 0
BBX 4 7 0 -1
BITMAP
00
00
00
00
00
00
00
ENDCHAR
STARTCHAR C014
ENCODING 12
SWIDTH 548 0
DWIDTH 4 0
BBX 4 7 0 -1
BITMAP
00
00
00
00
00
00
00
ENDCHAR
STARTCHAR C015
ENCODING 13
SWIDTH 548 0
DWIDTH 4 0
BBX 4 7 0 -1
BITMAP
00
00
00
00
00
00
00
ENDCHAR
STARTCHAR C016
ENCODING 14
SWIDTH 548 0
DWIDTH 4 0
BBX 4 7 0 -1
BITMAP
00
00
00
00
00
00
00
ENDCHAR
STARTCHAR C017
ENCODING 15
SWIDTH 548 0
DWIDTH 4 0
BBX 4 7 0 -1
BITMAP
00
00
00
00
00
00
00
ENDCHAR
STARTCHAR C020
ENCODING 16
SWIDTH 548 0
DWIDTH 4 0
BBX 4 7 0 -1
BITMAP
00
00
00
00
00
00
00
ENDCHAR
STARTCHAR C021
ENCODING 17
SWIDTH 548 0
DWIDTH 4 0
BBX 4 7 0 -1
BITMAP
00
00
00
00
00
00
00
ENDCHAR
STARTCHAR C022
ENCODING 18
SWIDTH 548 0
DWIDTH 4 0
BBX 4 7 0 -1
BITMAP
00
00
00
00
00
00
00
ENDCHAR
STARTCHAR C023
ENCODING 19
SWIDTH 548 0
DWIDTH 4 0
BBX 4 7 0 -1
BITMAP
00
00
00
00
00
00
00
ENDCHAR
STARTCHAR C024
ENCODING 20
SWIDTH 548 0
DWIDTH 4 0
BBX 4 7 0 -1
BITMAP
00
00
00
00
00
00
00
ENDCHAR
STARTCHAR C025
ENCODING 21
SWIDTH 548 0
DWIDTH 4 0
BBX 4 7 0 -1
BITMAP
00
00
00
00
00
00
00
ENDCHAR
STARTCHAR C026
ENCODING 22
SWIDTH 548 0
DWIDTH 4 0
BBX 4 7 0 -1
BITMAP
00
00
00
00
00
00
00
ENDCHAR
STARTCHAR C027
ENCODING 23
SWIDTH 548 0
DWIDTH 4 0
BBX 4 7 0 -1
BITMAP
00
00
00
00
00
00
00
ENDCHAR
STARTCHAR C030
ENCODING 24
SWIDTH 548 0
DWIDTH 4 0
BBX 4 7 0 -1
BITMAP
00
00
00
00
00
00
00
ENDCHAR
STARTCHAR C031
ENCODING 25
SWIDTH 548 0
DWIDTH 4 0
BBX 4 7 0 -1
BITMAP
00
00
00
00
00
00
00
ENDCHAR
STARTCHAR C032
ENCODING 26
SWIDTH 548 0
DWIDTH 4 0
BBX 4 7 0 -1
BITMAP
00
00
00
00
00
00
00
ENDCHAR
STARTCHAR C033
ENCODING 27
SWIDTH 548 0
DWIDTH 4 0
BBX 4 7 0 -1
BITMAP
00
00
00
00
00
00
00
ENDCHAR
STARTCHAR C034
ENCODING 28
SWIDTH 548 0
DWIDTH 4 0
BBX 4 7 0 -1
BITMAP
00
00
00
00
00
00
00
ENDCHAR
STARTCHAR C035
ENCODING 29
SWIDTH 548 0
DWIDTH 4 0
BBX 4 7 0 -1
BITMAP
00
00
00
00
00
00
00
ENDCHAR
STARTCHAR C036
ENCODING 30
SWIDTH 548 0
DWIDTH 4 0
BBX 4 7 0 -1
BITMAP
00
00
00
00
00
00
00
ENDCHAR
STARTCHAR C037
ENCODING 31
SWIDTH 548 0
DWIDTH 4 0
BBX 4 7 0 -1
BITMAP
00
00
00
00
00
00
00
ENDCHAR
STARTCHAR C040
ENCODING 32
SWIDTH 548 0
DWIDTH 4 0
BBX 4 7 0 -1
BITMAP
00
00
00
00
00
00
00
ENDCHAR
STARTCHAR !
ENCODING 33
SWIDTH 548 0
DWIDTH 4 0
BBX 4 7 0 -1
BITMAP
00
40
40
40
00
40
00
ENDCHAR
STARTCHAR "
ENCODING 34
SWIDTH 548 0
DWIDTH 4 0
BBX 4 7 0 -1
BITMAP
00
A0
A0
00
00
00
00
ENDCHAR
STARTCHAR #
ENCODING 35
SWIDTH 548 0
DWIDTH 4 0
BBX 4 7 0 -1
BITMAP
00
A0
E0
A0
E0
A0
00
ENDCHAR
STARTCHAR $
ENCODING 36
SWIDTH 548 0
DWIDTH 4 0
BBX 4 7 0 -1
BITMAP
00
40
E0
C0
20
E0
40
ENDCHAR
STARTCHAR %
ENCODING 37
SWIDTH 548 0
DWIDTH 4 0
BBX 4 7 0 -1
BITMAP
00
80
20
40
80
20
00
ENDCHAR
STARTCHAR &
ENCODING 38
SWIDTH 548 0
DWIDTH 4 0
BBX 4 7 0 -1
BITMAP
00
60
80
50
A0
50
00
ENDCHAR
STARTCHAR '
ENCODING 39
SWIDTH 548 0
DWIDTH 4 0
BBX 4 7 0 -1
BITMAP
00
60
40
00
00
00
00
ENDCHAR
STARTCHAR (
ENCODING 40
SWIDTH 548 0
DWIDTH 4 0
BBX 4 7 0 -1
BITMAP
00
20
40
40
40
40
20
ENDCHAR
STARTCHAR )
ENCODING 41
SWIDTH 548 0
DWIDTH 4 0
BBX 4 7 0 -1
BITMAP
00
40
20
20
20
20
40
ENDCHAR
STARTCHAR *
ENCODING 42
SWIDTH 548 0
DWIDTH 4 0
BBX 4 7 0 -1
BITMAP
00
40
E0
40
A0
00
00
ENDCHAR
STARTCHAR +
ENCODING 43
SWIDTH 548 0
DWIDTH 4 0
BBX 4 7 0 -1
BITMAP
00
00
40
E0
40
00
00
ENDCHAR
STARTCHAR ,
ENCODING 44
SWIDTH 548 0
DWIDTH 4 0
BBX 4 7 0 -1
BITMAP
00
00
00
00
00
60
20
ENDCHAR
STARTCHAR -
ENCODING 45
SWIDTH 548 0
DWIDTH 4 0
BBX 4 7 0 -1
BITMAP
00
00
00
E0
00
00
00
ENDCHAR
STARTCHAR .
ENCODING 46
SWIDTH 548 0
DWIDTH 4 0
BBX 4 7 0 -1
BITMAP
00
00
00
00
00
40
00
ENDCHAR
STARTCHAR /
ENCODING 47
SWIDTH 548 0
DWIDTH 4 0
BBX 4 7 0 -1
BITMAP
00
20
20
40
40
80
80
ENDCHAR
STARTCHAR 0
ENCODING 48
SWIDTH 548 0
DWIDTH 4 0
BBX 4 7 0 -1
BITMAP
00
E0
A0
A0
A0
E0
00
ENDCHAR
STARTCHAR 1
ENCODING 49
SWIDTH 548 0
DWIDTH 4 0
BBX 4 7 0 -1
BITMAP
00
C0
40
40
40
E0
00
ENDCHAR
STARTCHAR 2
ENCODING 50
SWIDTH 548 0
DWIDTH 4 0
BBX 4 7 0 -1
BITMAP
00
E0
20
E0
80
E0
00
ENDCHAR
STARTCHAR 3
ENCODING 51
SWIDTH 548 0
DWIDTH 4 0
BBX 4 7 0 -1
BITMAP
00
E0
20
60
20
E0
00
ENDCHAR
STARTCHAR 4
ENCODING 52
SWIDTH 548 0
DWIDTH 4 0
BBX 4 7 0 -1
BITMAP
00
A0
A0
E0
20
20
00
ENDCHAR
STARTCHAR 5
ENCODING 53
SWIDTH 548 0
DWIDTH 4 0
BBX 4 7 0 -1
BITMAP
00
E0
80
E0
20
E0
00
ENDCHAR
STARTCHAR 6
ENCODING 54
SWIDTH 548 0
DWIDTH 4 0
BBX 4 7 0 -1
BITMAP
00
C0
80
E0
A0
E0
00
ENDCHAR
STARTCHAR 7
ENCODING 55
SWIDTH 548 0
DWIDTH 4 0
BBX 4 7 0 -1
BITMAP
00
E0
20
40
40
40
00
ENDCHAR
STARTCHAR 8
ENCODING 56
SWIDTH 548 0
DWIDTH 4 0
BBX 4 7 0 -1
BITMAP
00
60
60
E0
A0
E0
00
ENDCHAR
STARTCHAR 9
ENCODING 57
SWIDTH 548 0
DWIDTH 4 0
BBX 4 7 0 -1
BITMAP
00
E0
A0
E0
20
60
00
ENDCHAR
STARTCHAR :
ENCODING 58
SWIDTH 548 0
DWIDTH 4 0
BBX 4 7 0 -1
BITMAP
00
00
00
40
00
40
00
ENDCHAR
STARTCHAR ;
ENCODING 59
SWIDTH 548 0
DWIDTH 4 0
BBX 4 7 0 -1
BITMAP
00
00
00
40
00
60
20
ENDCHAR
STARTCHAR <
ENCODING 60
SWIDTH 548 0
DWIDTH 4 0
BBX 4 7 0 -1
BITMAP
00
20
40
80
40
20
00
ENDCHAR
STARTCHAR =
ENCODING 61
SWIDTH 548 0
DWIDTH 4 0
BBX 4 7 0 -1
BITMAP
00
00
E0
00
E0
00
00
ENDCHAR
STARTCHAR >
ENCODING 62
SWIDTH 548 0
DWIDTH 4 0
BBX 4 7 0 -1
BITMAP
00
80
40
20
40
80
00
ENDCHAR
STARTCHAR ?
ENCODING 63
SWIDTH 548 0
DWIDTH 4 0
BBX 4 7 0 -1
BITMAP
00
E0
20
40
40
00
40
ENDCHAR
STARTCHAR @
ENCODING 64
SWIDTH 548 0
DWIDTH 4 0
BBX 4 7 0 -1
BITMAP
00
F0
90
50
D0
F0
00
ENDCHAR
STARTCHAR A
ENCODING 65
SWIDTH 548 0
DWIDTH 4 0
BBX 4 7 0 -1
BITMAP
00
60
A0
A0
E0
A0
00
ENDCHAR
STARTCHAR B
ENCODING 66
SWIDTH 548 0
DWIDTH 4 0
BBX 4 7 0 -1
BITMAP
00
C0
C0
E0
A0
E0
00
ENDCHAR
STARTCHAR C
ENCODING 67
SWIDTH 548 0
DWIDTH 4 0
BBX 4 7 0 -1
BITMAP
00
60
80
80
80
E0
00
ENDCHAR
STARTCHAR D
ENCODING 68
SWIDTH 548 0
DWIDTH 4 0
BBX 4 7 0 -1
BITMAP
00
C0
A0
A0
A0
C0
00
ENDCHAR
STARTCHAR E
ENCODING 69
SWIDTH 548 0
DWIDTH 4 0
BBX 4 7 0 -1
BITMAP
00
E0
80
C0
80
E0
00
ENDCHAR
STARTCHAR F
ENCODING 70
SWIDTH 548 0
DWIDTH 4 0
BBX 4 7 0 -1
BITMAP
00
E0
80
C0
80
80
00
ENDCHAR
STARTCHAR G
ENCODING 71
SWIDTH 548 0
DWIDTH 4 0
BBX 4 7 0 -1
BITMAP
00
60
80
A0
A0
E0
00
ENDCHAR
STARTCHAR H
ENCODING 72
SWIDTH 548 0
DWIDTH 4 0
BBX 4 7 0 -1
BITMAP
00
A0
A0
E0
A0
A0
00
ENDCHAR
STARTCHAR I
ENCODING 73
SWIDTH 548 0
DWIDTH 4 0
BBX 4 7 0 -1
BITMAP
00
E0
40
40
40
E0
00
ENDCHAR
STARTCHAR J
ENCODING 74
SWIDTH 548 0
DWIDTH 4 0
BBX 4 7 0 -1
BITMAP
00
60
20
20
A0
E0
00
ENDCHAR
STARTCHAR K
ENCODING 75
SWIDTH 548 0
DWIDTH 4 0
BBX 4 7 0 -1
BITMAP
00
A0
A0
C0
A0
A0
00
ENDCHAR
STARTCHAR L
ENCODING 76
SWIDTH 548 0
DWIDTH 4 0
BBX 4 7 0 -1
BITMAP
00
80
80
80
80
E0
00
ENDCHAR
STARTCHAR M
ENCODING 77
SWIDTH 548 0
DWIDTH 4 0
BBX 4 7 0 -1
BITMAP
00
E0
E0
E0
A0
A0
00
ENDCHAR
STARTCHAR N
ENCODING 78
SWIDTH 548 0
DWIDTH 4 0
BBX 4 7 0 -1
BITMAP
00
A0
E0
E0
E0
A0
00
ENDCHAR
STARTCHAR O
ENCODING 79
SWIDTH 548 0
DWIDTH 4 0
BBX 4 7 0 -1
BITMAP
00
60
A0
A0
A0
E0
00
ENDCHAR
STARTCHAR P
ENCODING 80
SWIDTH 548 0
DWIDTH 4 0
BBX 4 7 0 -1
BITMAP
00
E0
A0
E0
80
80
00
ENDCHAR
STARTCHAR Q
ENCODING 81
SWIDTH 548 0
DWIDTH 4 0
BBX 4 7 0 -1
BITMAP
00
60
A0
A0
A0
C0
60
ENDCHAR
STARTCHAR R
ENCODING 82
SWIDTH 548 0
DWIDTH 4 0
BBX 4 7 0 -1
BITMAP
00
E0
A0
C0
A0
A0
00
ENDCHAR
STARTCHAR S
ENCODING 83
SWIDTH 548 0
DWIDTH 4 0
BBX 4 7 0 -1
BITMAP
00
60
80
E0
20
E0
00
ENDCHAR
STARTCHAR T
ENCODING 84
SWIDTH 548 0
DWIDTH 4 0
BBX 4 7 0 -1
BITMAP
00
E0
40
40
40
40
00
ENDCHAR
STARTCHAR U
ENCODING 85
SWIDTH 548 0
DWIDTH 4 0
BBX 4 7 0 -1
BITMAP
00
A0
A0
A0
A0
E0
00
ENDCHAR
STARTCHAR V
ENCODING 86
SWIDTH 548 0
DWIDTH 4 0
BBX 4 7 0 -1
BITMAP
00
A0
A0
A0
C0
80
00
ENDCHAR
STARTCHAR W
ENCODING 87
SWIDTH 548 0
DWIDTH 4 0
BBX 4 7 0 -1
BITMAP
00
A0
A0
E0
E0
E0
00
ENDCHAR
STARTCHAR X
ENCODING 88
SWIDTH 548 0
DWIDTH 4 0
BBX 4 7 0 -1
BITMAP
00
A0
A0
40
A0
A0
00
ENDCHAR
STARTCHAR Y
ENCODING 89
SWIDTH 548 0
DWIDTH 4 0
BBX 4 7 0 -1
BITMAP
00
A0
A0
E0
40
40
00
ENDCHAR
STARTCHAR Z
ENCODING 90
SWIDTH 548 0
DWIDTH 4 0
BBX 4 7 0 -1
BITMAP
00
E0
20
40
80
E0
00
ENDCHAR
STARTCHAR [
ENCODING 91
SWIDTH 548 0
DWIDTH 4 0
BBX 4 7 0 -1
BITMAP
00
E0
C0
C0
C0
C0
E0
ENDCHAR
STARTCHAR \
ENCODING 92
SWIDTH 548 0
DWIDTH 4 0
BBX 4 7 0 -1
BITMAP
00
80
80
40
40
20
20
ENDCHAR
STARTCHAR ]
ENCODING 93
SWIDTH 548 0
DWIDTH 4 0
BBX 4 7 0 -1
BITMAP
00
E0
60
60
60
60
E0
ENDCHAR
STARTCHAR ^
ENCODING 94
SWIDTH 548 0
DWIDTH 4 0
BBX 4 7 0 -1
BITMAP
00
40
A0
00
00
00
00
ENDCHAR
STARTCHAR _
ENCODING 95
SWIDTH 548 0
DWIDTH 4 0
BBX 4 7 0 -1
BITMAP
00
00
00
00
00
00
F0
ENDCHAR
STARTCHAR `
ENCODING 96
SWIDTH 548 0
DWIDTH 4 0
BBX 4 7 0 -1
BITMAP
00
60
20
00
00
00
00
ENDCHAR
STARTCHAR a
ENCODING 97
SWIDTH 548 0
DWIDTH 4 0
BBX 4 7 0 -1
BITMAP
00
00
60
20
E0
E0
00
ENDCHAR
STARTCHAR b
ENCODING 98
SWIDTH 548 0
DWIDTH 4 0
BBX 4 7 0 -1
BITMAP
00
80
E0
A0
A0
E0
00
ENDCHAR
STARTCHAR c
ENCODING 99
SWIDTH 548 0
DWIDTH 4 0
BBX 4 7 0 -1
BITMAP
00
00
60
80
80
E0
00
ENDCHAR
STARTCHAR d
ENCODING 100
SWIDTH 548 0
DWIDTH 4 0
BBX 4 7 0 -1
BITMAP
00
20
E0
A0
A0
E0
00
ENDCHAR
STARTCHAR e
ENCODING 101
SWIDTH 548 0
DWIDTH 4 0
BBX 4 7 0 -1
BITMAP
00
00
E0
E0
80
E0
00
ENDCHAR
STARTCHAR f
ENCODING 102
SWIDTH 548 0
DWIDTH 4 0
BBX 4 7 0 -1
BITMAP
00
60
80
E0
80
80
00
ENDCHAR
STARTCHAR g
ENCODING 103
SWIDTH 548 0
DWIDTH 4 0
BBX 4 7 0 -1
BITMAP
00
00
E0
A0
E0
20
E0
ENDCHAR
STARTCHAR h
ENCODING 104
SWIDTH 548 0
DWIDTH 4 0
BBX 4 7 0 -1
BITMAP
00
80
E0
A0
A0
A0
00
ENDCHAR
STARTCHAR i
ENCODING 105
SWIDTH 548 0
DWIDTH 4 0
BBX 4 7 0 -1
BITMAP
40
00
C0
40
40
E0
00
ENDCHAR
STARTCHAR j
ENCODING 106
SWIDTH 548 0
DWIDTH 4 0
BBX 4 7 0 -1
BITMAP
20
00
60
20
20
A0
E0
ENDCHAR
STARTCHAR k
ENCODING 107
SWIDTH 548 0
DWIDTH 4 0
BBX 4 7 0 -1
BITMAP
00
80
A0
C0
C0
A0
00
ENDCHAR
STARTCHAR l
ENCODING 108
SWIDTH 548 0
DWIDTH 4 0
BBX 4 7 0 -1
BITMAP
00
C0
40
40
40
60
00
ENDCHAR
STARTCHAR m
ENCODING 109
SWIDTH 548 0
DWIDTH 4 0
BBX 4 7 0 -1
BITMAP
00
00
E0
E0
E0
A0
00
ENDCHAR
STARTCHAR n
ENCODING 110
SWIDTH 548 0
DWIDTH 4 0
BBX 4 7 0 -1
BITMAP
00
00
E0
A0
A0
A0
00
ENDCHAR
STARTCHAR o
ENCODING 111
SWIDTH 548 0
DWIDTH 4 0
BBX 4 7 0 -1
BITMAP
00
00
E0
A0
A0
E0
00
ENDCHAR
STARTCHAR p
ENCODING 112
SWIDTH 548 0
DWIDTH 4 0
BBX 4 7 0 -1
BITMAP
00
00
E0
A0
E0
80
80
ENDCHAR
STARTCHAR q
ENCODING 113
SWIDTH 548 0
DWIDTH 4 0
BBX 4 7 0 -1
BITMAP
00
00
E0
A0
E0
20
20
ENDCHAR
STARTCHAR r
ENCODING 114
SWIDTH 548 0
DWIDTH 4 0
BBX 4 7 0 -1
BITMAP
00
00
E0
80
80
80
00
ENDCHAR
STARTCHAR s
ENCODING 115
SWIDTH 548 0
DWIDTH 4 0
BBX 4 7 0 -1
BITMAP
00
00
E0
80
60
E0
00
ENDCHAR
STARTCHAR t
ENCODING 116
SWIDTH 548 0
DWIDTH 4 0
BBX 4 7 0 -1
BITMAP
00
40
60
40
40
60
00
ENDCHAR
STARTCHAR u
ENCODING 117
SWIDTH 548 0
DWIDTH 4 0
BBX 4 7 0 -1
BITMAP
00
00
A0
A0
A0
E0
00
ENDCHAR
STARTCHAR v
ENCODING 118
SWIDTH 548 0
DWIDTH 4 0
BBX 4 7 0 -1
BITMAP
00
00
A0
A0
E0
40
00
ENDCHAR
STARTCHAR w
ENCODING 119
SWIDTH 548 0
DWIDTH 4 0
BBX 4 7 0 -1
BITMAP
00
00
A0
E0
E0
E0
00
ENDCHAR
STARTCHAR x
ENCODING 120
SWIDTH 548 0
DWIDTH 4 0
BBX 4 7 0 -1
BITMAP
00
00
A0
40
A0
A0
00
ENDCHAR
STARTCHAR y
ENCODING 121
SWIDTH 548 0
DWIDTH 4 0
BBX 4 7 0 -1
BITMAP
00
00
A0
A0
E0
20
E0
ENDCHAR
STARTCHAR z
ENCODING 122
SWIDTH 548 0
DWIDTH 4 0
BBX 4 7 0 -1
BITMAP
00
00
E0
60
C0
E0
00
ENDCHAR
STARTCHAR {
ENCODING 123
SWIDTH 548 0
DWIDTH 4 0
BBX 4 7 0 -1
BITMAP
00
60
40
C0
40
40
60
ENDCHAR
STARTCHAR |
ENCODING 124
SWIDTH 548 0
DWIDTH 4 0
BBX 4 7 0 -1
BITMAP
00
40
40
40
40
40
00
ENDCHAR
STARTCHAR }
ENCODING 125
SWIDTH 548 0
DWIDTH 4 0
BBX 4 7 0 -1
BITMAP
00
C0
40
60
40
40
C0
ENDCHAR
STARTCHAR ~
ENCODING 126
SWIDTH 548 0
DWIDTH 4 0
BBX 4 7 0 -1
BITMAP
00
00
20
E0
80
00
00
ENDCHAR
STARTCHAR C177
ENCODING 127
SWIDTH 548 0
DWIDTH 4 0
BBX 4 7 0 -1
BITMAP
00
40
40
A0
A0
E0
00
ENDCHAR
STARTCHAR A
ENCODING 192
SWIDTH 548 0
DWIDTH 4 0
BBX 4 7 0 -1
BITMAP
80
40
60
A0
E0
A0
00
ENDCHAR
STARTCHAR A
ENCODING 193
SWIDTH 548 0
DWIDTH 4 0
BBX 4 7 0 -1
BITMAP
20
40
60
A0
E0
A0
00
ENDCHAR
STARTCHAR A
ENCODING 194
SWIDTH 548 0
DWIDTH 4 0
BBX 4 7 0 -1
BITMAP
40
A0
60
A0
E0
A0
00
ENDCHAR
STARTCHAR A
ENCODING 195
SWIDTH 548 0
DWIDTH 4 0
BBX 4 7 0 -1
BITMAP
50
A0
60
A0
E0
A0
00
ENDCHAR
STARTCHAR A
ENCODING 196
SWIDTH 548 0
DWIDTH 4 0
BBX 4 7 0 -1
BITMAP
A0
60
A0
A0
E0
A0
00
ENDCHAR
STARTCHAR A
ENCODING 197
SWIDTH 548 0
DWIDTH 4 0
BBX 4 7 0 -1
BITMAP
40
A0
40
A0
E0
A0
00
ENDCHAR
STARTCHAR A
ENCODING 198
SWIDTH 548 0
DWIDTH 4 0
BBX 4 7 0 -1
BITMAP
00
70
A0
B0
E0
B0
00
ENDCHAR
STARTCHAR char199
ENCODING 199
SWIDTH 548 0
DWIDTH 4 0
BBX 4 7 0 -1
BITMAP
00
60
80
80
80
E0
60
ENDCHAR
STARTCHAR E
ENCODING 200
SWIDTH 548 0
DWIDTH 4 0
BBX 4 7 0 -1
BITMAP
80
40
E0
C0
80
E0
00
ENDCHAR
STARTCHAR E
ENCODING 201
SWIDTH 548 0
DWIDTH 4 0
BBX 4 7 0 -1
BITMAP
20
40
E0
C0
80
E0
00
ENDCHAR
STARTCHAR E
ENCODING 202
SWIDTH 548 0
DWIDTH 4 0
BBX 4 7 0 -1
BITMAP
40
A0
E0
C0
80
E0
00
ENDCHAR
STARTCHAR E
ENCODING 203
SWIDTH 548 0
DWIDTH 4 0
BBX 4 7 0 -1
BITMAP
A0
E0
80
C0
80
E0
00
ENDCHAR
STARTCHAR I
ENCODING 204
SWIDTH 548 0
DWIDTH 4 0
BBX 4 7 0 -1
BITMAP
80
40
E0
40
40
E0
00
ENDCHAR
STARTCHAR I
ENCODING 205
SWIDTH 548 0
DWIDTH 4 0
BBX 4 7 0 -1
BITMAP
20
40
E0
40
40
E0
00
ENDCHAR
STARTCHAR I
ENCODING 206
SWIDTH 548 0
DWIDTH 4 0
BBX 4 7 0 -1
BITMAP
40
A0
E0
40
40
E0
00
ENDCHAR
STARTCHAR I
ENCODING 207
SWIDTH 548 0
DWIDTH 4 0
BBX 4 7 0 -1
BITMAP
A0
E0
40
40
40
E0
00
ENDCHAR
STARTCHAR char208
ENCODING 208
SWIDTH 548 0
DWIDTH 4 0
BBX 4 7 0 -1
BITMAP
00
60
50
D0
50
60
00
ENDCHAR
STARTCHAR char209
ENCODING 209
SWIDTH 548 0
DWIDTH 4 0
BBX 4 7 0 -1
BITMAP
50
A0
A0
E0
E0
A0
00
ENDCHAR
STARTCHAR char210
ENCODING 210
SWIDTH 548 0
DWIDTH 4 0
BBX 4 7 0 -1
BITMAP
80
40
E0
A0
A0
E0
00
ENDCHAR
STARTCHAR char210
ENCODING 211
SWIDTH 548 0
DWIDTH 4 0
BBX 4 7 0 -1
BITMAP
20
40
E0
A0
A0
E0
00
ENDCHAR
STARTCHAR char210
ENCODING 212
SWIDTH 548 0
DWIDTH 4 0
BBX 4 7 0 -1
BITMAP
40
A0
E0
A0
A0
E0
00
ENDCHAR
STARTCHAR char210
ENCODING 213
SWIDTH 548 0
DWIDTH 4 0
BBX 4 7 0 -1
BITMAP
50
A0
E0
A0
A0
E0
00
ENDCHAR
STARTCHAR char214
ENCODING 214
SWIDTH 548 0
DWIDTH 4 0
BBX 4 7 0 -1
BITMAP
A0
E0
A0
A0
A0
E0
00
ENDCHAR
STARTCHAR char215
ENCODING 215
SWIDTH 548 0
DWIDTH 4 0
BBX 4 7 0 -1
BITMAP
00
00
A0
40
A0
00
00
ENDCHAR
STARTCHAR char216
ENCODING 216
SWIDTH 548 0
DWIDTH 4 0
BBX 4 7 0 -1
BITMAP
20
E0
E0
A0
E0
E0
80
ENDCHAR
STARTCHAR char217
ENCODING 217
SWIDTH 548 0
DWIDTH 4 0
BBX 4 7 0 -1
BITMAP
80
40
A0
A0
A0
E0
00
ENDCHAR
STARTCHAR char217
ENCODING 218
SWIDTH 548 0
DWIDTH 4 0
BBX 4 7 0 -1
BITMAP
20
40
A0
A0
A0
E0
00
ENDCHAR
STARTCHAR char217
ENCODING 219
SWIDTH 548 0
DWIDTH 4 0
BBX 4 7 0 -1
BITMAP
40
A0
A0
A0
A0
E0
00
ENDCHAR
STARTCHAR char217
ENCODING 220
SWIDTH 548 0
DWIDTH 4 0
BBX 4 7 0 -1
BITMAP
A0
00
A0
A0
A0
E0
00
ENDCHAR
STARTCHAR Y
ENCODING 221
SWIDTH 548 0
DWIDTH 4 0
BBX 4 7 0 -1
BITMAP
20
40
A0
E0
40
40
00
ENDCHAR
STARTCHAR char222
ENCODING 222
SWIDTH 548 0
DWIDTH 4 0
BBX 4 7 0 -1
BITMAP
00
80
E0
A0
E0
80
00
ENDCHAR
STARTCHAR char223
ENCODING 223
SWIDTH 548 0
DWIDTH 4 0
BBX 4 7 0 -1
BITMAP
00
C0
C0
A0
A0
E0
80
ENDCHAR
STARTCHAR a
ENCODING 224
SWIDTH 548 0
DWIDTH 4 0
BBX 4 7 0 -1
BITMAP
80
40
60
20
E0
E0
00
ENDCHAR
STARTCHAR a
ENCODING 225
SWIDTH 548 0
DWIDTH 4 0
BBX 4 7 0 -1
BITMAP
20
40
60
20
E0
E0
00
ENDCHAR
STARTCHAR a
ENCODING 226
SWIDTH 548 0
DWIDTH 4 0
BBX 4 7 0 -1
BITMAP
40
A0
60
20
E0
E0
00
ENDCHAR
STARTCHAR a
ENCODING 227
SWIDTH 548 0
DWIDTH 4 0
BBX 4 7 0 -1
BITMAP
50
A0
60
20
E0
E0
00
ENDCHAR
STARTCHAR a
ENCODING 228
SWIDTH 548 0
DWIDTH 4 0
BBX 4 7 0 -1
BITMAP
A0
00
60
20
E0
E0
00
ENDCHAR
STARTCHAR a
ENCODING 229
SWIDTH 548 0
DWIDTH 4 0
BBX 4 7 0 -1
BITMAP
40
A0
40
20
E0
E0
00
ENDCHAR
STARTCHAR a
ENCODING 230
SWIDTH 548 0
DWIDTH 4 0
BBX 4 7 0 -1
BITMAP
00
00
70
30
E0
F0
00
ENDCHAR
STARTCHAR char231
ENCODING 231
SWIDTH 548 0
DWIDTH 4 0
BBX 4 7 0 -1
BITMAP
00
00
60
80
80
E0
60
ENDCHAR
STARTCHAR char232
ENCODING 232
SWIDTH 548 0
DWIDTH 4 0
BBX 4 7 0 -1
BITMAP
80
40
E0
E0
80
E0
00
ENDCHAR
STARTCHAR char232
ENCODING 233
SWIDTH 548 0
DWIDTH 4 0
BBX 4 7 0 -1
BITMAP
20
40
E0
E0
80
E0
00
ENDCHAR
STARTCHAR char232
ENCODING 234
SWIDTH 548 0
DWIDTH 4 0
BBX 4 7 0 -1
BITMAP
40
A0
E0
E0
80
E0
00
ENDCHAR
STARTCHAR char232
ENCODING 235
SWIDTH 548 0
DWIDTH 4 0
BBX 4 7 0 -1
BITMAP
A0
00
E0
E0
80
E0
00
ENDCHAR
STARTCHAR char236
ENCODING 236
SWIDTH 548 0
DWIDTH 4 0
BBX 4 7 0 -1
BITMAP
80
40
C0
40
40
E0
00
ENDCHAR
STARTCHAR char236
ENCODING 237
SWIDTH 548 0
DWIDTH 4 0
BBX 4 7 0 -1
BITMAP
20
40
C0
40
40
E0
00
ENDCHAR
STARTCHAR char236
ENCODING 238
SWIDTH 548 0
DWIDTH 4 0
BBX 4 7 0 -1
BITMAP
40
A0
C0
40
40
E0
00
ENDCHAR
STARTCHAR char236
ENCODING 239
SWIDTH 548 0
DWIDTH 4 0
BBX 4 7 0 -1
BITMAP
A0
00
C0
40
40
E0
00
ENDCHAR
STARTCHAR char240
ENCODING 240
SWIDTH 548 0
DWIDTH 4 0
BBX 4 7 0 -1
BITMAP
40
30
60
60
A0
E0
00
ENDCHAR
STARTCHAR char241
ENCODING 241
SWIDTH 548 0
DWIDTH 4 0
BBX 4 7 0 -1
BITMAP
50
A0
E0
A0
A0
A0
00
ENDCHAR
STARTCHAR char242
ENCODING 242
SWIDTH 548 0
DWIDTH 4 0
BBX 4 7 0 -1
BITMAP
80
40
E0
A0
A0
E0
00
ENDCHAR
STARTCHAR char242
ENCODING 243
SWIDTH 548 0
DWIDTH 4 0
BBX 4 7 0 -1
BITMAP
20
40
E0
A0
A0
E0
00
ENDCHAR
STARTCHAR char242
ENCODING 244
SWIDTH 548 0
DWIDTH 4 0
BBX 4 7 0 -1
BITMAP
40
A0
E0
A0
A0
E0
00
ENDCHAR
STARTCHAR char242
ENCODING 245
SWIDTH 548 0
DWIDTH 4 0
BBX 4 7 0 -1
BITMAP
50
A0
E0
A0
A0
E0
00
ENDCHAR
STARTCHAR char242
ENCODING 246
SWIDTH 548 0
DWIDTH 4 0
BBX 4 7 0 -1
BITMAP
A0
00
E0
A0
A0
E0
00
ENDCHAR
STARTCHAR char247
ENCODING 247
SWIDTH 548 0
DWIDTH 4 0
BBX 4 7 0 -1
BITMAP
00
40
00
E0
00
40
00
ENDCHAR
STARTCHAR char248
ENCODING 248
SWIDTH 548 0
DWIDTH 4 0
BBX 4 7 0 -1
BITMAP
00
20
E0
E0
E0
E0
80
ENDCHAR
STARTCHAR char249
ENCODING 249
SWIDTH 548 0
DWIDTH 4 0
BBX 4 7 0 -1
BITMAP
80
40
A0
A0
A0
E0
00
ENDCHAR
STARTCHAR char249
ENCODING 250
SWIDTH 548 0
DWIDTH 4 0
BBX 4 7 0 -1
BITMAP
20
40
A0
A0
A0
E0
00
ENDCHAR
STARTCHAR char249
ENCODING 251
SWIDTH 548 0
DWIDTH 4 0
BBX 4 7 0 -1
BITMAP
40
A0
00
A0
A0
E0
00
ENDCHAR
STARTCHAR char249
ENCODING 252
SWIDTH 548 0
DWIDTH 4 0
BBX 4 7 0 -1
BITMAP
A0
00
A0
A0
A0
E0
00
ENDCHAR
STARTCHAR char253
ENCODING 253
SWIDTH 548 0
DWIDTH 4 0
BBX 4 7 0 -1
BITMAP
20
40
A0
A0
E0
20
E0
ENDCHAR
STARTCHAR char254
ENCODING 254
SWIDTH 548 0
DWIDTH 4 0
BBX 4 7 0 -1
BITMAP
00
80
80
E0
E0
80
80
ENDCHAR
STARTCHAR char255
ENCODING 255
SWIDTH 548 0
DWIDTH 4 0
BBX 4 7 0 -1
BITMAP
A0
00
A0
A0
E0
20
E0
ENDCHAR
ENDFONT
